# xmcd CD database file
#
# Track frame offsets:
#	150
#	23075
#	44900
#	64175
#	84800
#	105875
#	127850
#	149600
#	168950
#	191750
#
# Disc length: 2814 seconds
#
# Revision: 0
# Processed by: cddbd v1.5.1PL2 Copyright (c) Steve Scherf et al.
# Submitted via: CDex 1.51
#
DISCID=800afc0a
DTITLE=チゥニイ - もう一度純愛
DYEAR=2006
DGENRE=JPop
TTITLE0=最初から今まで
TTITLE1=愛は何にも
TTITLE2=愛想
TTITLE3=雨よ・・・
TTITLE4=願い
TTITLE5=後悔
TTITLE6=叶わぬ恋
TTITLE7=愛弔
TTITLE8=悲しいですね
TTITLE9=追憶よ
EXTD=YEAR: 2006
EXTT0=
EXTT1=
EXTT2=
EXTT3=
EXTT4=
EXTT5=
EXTT6=
EXTT7=
EXTT8=
EXTT9=
PLAYORDER=
